<svg width="720" height="307" viewBox="0 0 720 307" fill="none" xmlns="http://www.w3.org/2000/svg">
<path d="M307.484 173.448C306.464 173.448 306.107 172.479 306.413 170.541C306.923 167.583 307.28 164.625 307.484 161.667C307.79 158.607 307.943 155.955 307.943 153.711C307.943 151.569 307.79 149.835 307.484 148.509C307.28 147.081 306.821 146.367 306.107 146.367C305.801 146.367 305.342 146.52 304.73 146.826C304.22 147.132 303.302 147.744 301.976 148.662C299.732 150.294 296.825 152.079 293.255 154.017C289.787 155.955 286.013 157.893 281.933 159.831C277.853 161.769 273.875 163.605 269.999 165.339C266.123 167.073 262.655 168.654 259.595 170.082C257.861 170.796 255.872 171.153 253.628 171.153C251.078 171.153 248.732 170.745 246.59 169.929C244.55 169.011 243.53 167.634 243.53 165.798C243.53 163.248 244.448 159.831 246.284 155.547C248.12 151.263 250.925 146.622 254.699 141.624C258.473 136.524 263.165 131.628 268.775 126.936C272.549 123.774 276.527 121.275 280.709 119.439C284.891 117.603 289.43 116.685 294.326 116.685C296.876 116.685 299.579 116.991 302.435 117.603C305.291 118.215 307.688 119.235 309.626 120.663C311.666 122.091 312.686 124.08 312.686 126.63C312.686 128.466 312.227 129.792 311.309 130.608C310.493 131.322 309.626 131.679 308.708 131.679C307.484 131.679 305.954 131.169 304.118 130.149C302.384 129.129 300.038 128.619 297.08 128.619C294.938 128.619 292.745 128.976 290.501 129.69C288.257 130.302 285.758 131.373 283.004 132.903C278.312 135.555 274.13 138.462 270.458 141.624C266.786 144.684 263.879 147.693 261.737 150.651C259.697 153.609 258.677 156.159 258.677 158.301C258.677 159.831 259.187 161.055 260.207 161.973C261.329 162.891 262.706 163.35 264.338 163.35C266.888 163.35 269.846 162.585 273.212 161.055C276.578 159.423 279.791 157.791 282.851 156.159C289.175 152.793 293.969 149.937 297.233 147.591C300.599 145.245 303.149 143.409 304.883 142.083C306.719 140.655 308.453 139.686 310.085 139.176C310.391 139.074 310.952 139.023 311.768 139.023C313.4 139.023 315.185 139.38 317.123 140.094C319.163 140.706 320.132 141.318 320.03 141.93C320.03 143.766 319.418 145.908 318.194 148.356C316.97 150.702 315.95 153.507 315.134 156.771C314.624 159.015 314.267 161.055 314.063 162.891C313.961 164.625 313.451 166.971 312.533 169.929C312.431 170.337 311.768 171 310.544 171.918C309.32 172.938 308.3 173.448 307.484 173.448ZM333.127 171.918C332.719 171.918 332.005 171.612 330.985 171C329.965 170.49 328.996 169.776 328.078 168.858C327.262 167.838 326.854 166.818 326.854 165.798C326.854 162.942 327.313 159.423 328.231 155.241C329.251 150.957 330.577 146.469 332.209 141.777C333.841 136.983 335.575 132.546 337.411 128.466C338.227 126.732 339.349 125.559 340.777 124.947C342.205 124.233 343.735 123.876 345.367 123.876C347.713 123.876 349.906 124.488 351.946 125.712C353.986 126.936 355.006 128.517 355.006 130.455C355.006 131.475 354.649 132.495 353.935 133.515C353.425 134.229 352.813 135.249 352.099 136.575C351.385 137.799 350.773 138.921 350.263 139.941C349.651 141.165 349.498 141.777 349.804 141.777C349.906 141.777 350.416 141.318 351.334 140.4C353.374 138.462 356.128 136.473 359.596 134.433C363.166 132.291 366.838 130.506 370.612 129.078C374.386 127.548 377.65 126.783 380.404 126.783C384.484 126.783 387.799 127.956 390.349 130.302C393.001 132.546 394.939 135.453 396.163 139.023C397.387 142.593 397.999 146.265 397.999 150.039C397.999 156.771 396.469 162.126 393.409 166.104C393.001 166.716 392.185 167.583 390.961 168.705C389.737 169.827 388.819 170.388 388.207 170.388C387.901 170.388 387.748 170.184 387.748 169.776C387.748 169.572 387.748 169.368 387.748 169.164C387.85 168.96 387.952 168.705 388.054 168.399C388.87 166.155 389.482 163.707 389.89 161.055C390.4 158.403 390.655 155.751 390.655 153.099C390.655 149.733 390.145 146.571 389.125 143.613C388.207 140.655 386.575 138.258 384.229 136.422C381.985 134.586 378.874 133.668 374.896 133.668C368.674 133.668 363.268 135.606 358.678 139.482C354.19 143.358 349.702 148.764 345.214 155.7C341.746 161.004 339.145 165.033 337.411 167.787C335.677 170.541 334.249 171.918 333.127 171.918ZM436.023 170.847C433.677 170.847 431.178 170.49 428.526 169.776C425.874 169.062 423.477 168.195 421.335 167.175C419.295 166.155 417.867 165.237 417.051 164.421C413.685 160.545 412.002 155.802 412.002 150.192C412.002 143.154 414.552 135.81 419.652 128.16C425.772 119.286 434.187 114.849 444.897 114.849C449.589 114.849 453.465 115.41 456.525 116.532C459.687 117.654 462.186 119.031 464.022 120.663C465.858 122.295 467.133 123.876 467.847 125.406C468.663 126.936 469.071 128.058 469.071 128.772C469.071 131.016 468.102 132.138 466.164 132.138C464.022 132.138 462.951 131.781 462.951 131.067C462.951 130.863 463.002 130.608 463.104 130.302C463.308 129.894 463.41 129.537 463.41 129.231C463.41 128.721 463.002 128.058 462.186 127.242C461.472 126.324 460.809 125.661 460.197 125.253C457.953 123.519 455.148 122.652 451.782 122.652C448.926 122.652 445.917 123.468 442.755 125.1C439.695 126.732 436.686 129.486 433.728 133.362C430.362 137.748 427.863 141.93 426.231 145.908C424.599 149.886 423.783 153.405 423.783 156.465C423.783 160.137 424.905 162.84 427.149 164.574C429.495 166.308 433.83 167.175 440.154 167.175C443.214 167.175 446.631 166.818 450.405 166.104C454.281 165.288 458.208 164.064 462.186 162.432C467.796 160.086 473.151 156.822 478.251 152.64C479.679 151.518 480.699 150.957 481.311 150.957C481.923 150.957 482.229 151.314 482.229 152.028C482.229 153.15 481.617 154.272 480.393 155.394C476.313 159.474 470.499 163.095 462.951 166.257C455.403 169.317 446.427 170.847 436.023 170.847ZM489.581 171.612C487.949 171.612 486.164 170.745 484.226 169.011C482.39 167.277 481.472 165.033 481.472 162.279C481.472 157.587 482.033 152.334 483.155 146.52C484.379 140.604 486.011 134.637 488.051 128.619C490.091 122.499 492.284 116.685 494.63 111.177C497.078 105.567 499.526 100.671 501.974 96.489C502.994 94.755 504.473 93.327 506.411 92.205C508.451 91.083 510.644 90.267 512.99 89.757C515.336 89.247 517.427 88.992 519.263 88.992C521.711 88.992 523.241 89.298 523.853 89.91C524.567 90.42 524.924 91.287 524.924 92.511C524.924 93.531 524.618 94.755 524.006 96.183C523.496 97.509 522.323 99.345 520.487 101.691C514.979 108.627 510.695 115.308 507.635 121.734C504.575 128.16 502.433 133.77 501.209 138.564C500.087 143.358 499.526 146.928 499.526 149.274C499.526 150.294 499.577 150.957 499.679 151.263C499.985 150.753 500.495 150.09 501.209 149.274C501.923 148.458 502.841 147.54 503.963 146.52C506.411 144.276 509.267 141.93 512.531 139.482C515.795 136.932 519.365 134.79 523.241 133.056C527.117 131.22 531.146 130.302 535.328 130.302C538.082 130.302 540.785 130.71 543.437 131.526C546.089 132.24 548.282 133.566 550.016 135.504C551.852 137.34 552.77 139.941 552.77 143.307C552.77 145.041 552.311 147.234 551.393 149.886C550.577 152.538 549.608 155.241 548.486 157.995C547.364 160.647 546.395 162.993 545.579 165.033C545.069 166.359 544.202 167.481 542.978 168.399C541.856 169.215 540.887 169.623 540.071 169.623C539.153 169.623 538.694 169.266 538.694 168.552C538.694 168.144 538.898 167.379 539.306 166.257C540.632 162.075 541.601 158.454 542.213 155.394C542.927 152.232 543.284 149.478 543.284 147.132C543.284 143.46 542.57 140.298 541.142 137.646C539.816 134.994 537.572 133.668 534.41 133.668C531.248 133.668 527.576 134.841 523.394 137.187C519.314 139.533 515.183 142.593 511.001 146.367C506.921 150.039 503.198 153.966 499.832 158.148C496.466 162.33 494.018 166.206 492.488 169.776C491.876 171 490.907 171.612 489.581 171.612ZM620.506 173.448C619.486 173.448 619.129 172.479 619.435 170.541C619.945 167.583 620.302 164.625 620.506 161.667C620.812 158.607 620.965 155.955 620.965 153.711C620.965 151.569 620.812 149.835 620.506 148.509C620.302 147.081 619.843 146.367 619.129 146.367C618.823 146.367 618.364 146.52 617.752 146.826C617.242 147.132 616.324 147.744 614.998 148.662C612.754 150.294 609.847 152.079 606.277 154.017C602.809 155.955 599.035 157.893 594.955 159.831C590.875 161.769 586.897 163.605 583.021 165.339C579.145 167.073 575.677 168.654 572.617 170.082C570.883 170.796 568.894 171.153 566.65 171.153C564.1 171.153 561.754 170.745 559.612 169.929C557.572 169.011 556.552 167.634 556.552 165.798C556.552 163.248 557.47 159.831 559.306 155.547C561.142 151.263 563.947 146.622 567.721 141.624C571.495 136.524 576.187 131.628 581.797 126.936C585.571 123.774 589.549 121.275 593.731 119.439C597.913 117.603 602.452 116.685 607.348 116.685C609.898 116.685 612.601 116.991 615.457 117.603C618.313 118.215 620.71 119.235 622.648 120.663C624.688 122.091 625.708 124.08 625.708 126.63C625.708 128.466 625.249 129.792 624.331 130.608C623.515 131.322 622.648 131.679 621.73 131.679C620.506 131.679 618.976 131.169 617.14 130.149C615.406 129.129 613.06 128.619 610.102 128.619C607.96 128.619 605.767 128.976 603.523 129.69C601.279 130.302 598.78 131.373 596.026 132.903C591.334 135.555 587.152 138.462 583.48 141.624C579.808 144.684 576.901 147.693 574.759 150.651C572.719 153.609 571.699 156.159 571.699 158.301C571.699 159.831 572.209 161.055 573.229 161.973C574.351 162.891 575.728 163.35 577.36 163.35C579.91 163.35 582.868 162.585 586.234 161.055C589.6 159.423 592.813 157.791 595.873 156.159C602.197 152.793 606.991 149.937 610.255 147.591C613.621 145.245 616.171 143.409 617.905 142.083C619.741 140.655 621.475 139.686 623.107 139.176C623.413 139.074 623.974 139.023 624.79 139.023C626.422 139.023 628.207 139.38 630.145 140.094C632.185 140.706 633.154 141.318 633.052 141.93C633.052 143.766 632.44 145.908 631.216 148.356C629.992 150.702 628.972 153.507 628.156 156.771C627.646 159.015 627.289 161.055 627.085 162.891C626.983 164.625 626.473 166.971 625.555 169.929C625.453 170.337 624.79 171 623.566 171.918C622.342 172.938 621.322 173.448 620.506 173.448ZM646.15 171.918C645.742 171.918 645.028 171.612 644.008 171C642.988 170.49 642.019 169.776 641.101 168.858C640.285 167.838 639.877 166.818 639.877 165.798C639.877 162.942 640.336 159.423 641.254 155.241C642.274 150.957 643.6 146.469 645.232 141.777C646.864 136.983 648.598 132.546 650.434 128.466C651.25 126.732 652.372 125.559 653.8 124.947C655.228 124.233 656.758 123.876 658.39 123.876C660.736 123.876 662.929 124.488 664.969 125.712C667.009 126.936 668.029 128.517 668.029 130.455C668.029 131.475 667.672 132.495 666.958 133.515C666.448 134.229 665.836 135.249 665.122 136.575C664.408 137.799 663.796 138.921 663.286 139.941C662.674 141.165 662.521 141.777 662.827 141.777C662.929 141.777 663.439 141.318 664.357 140.4C666.397 138.462 669.151 136.473 672.619 134.433C676.189 132.291 679.861 130.506 683.635 129.078C687.409 127.548 690.673 126.783 693.427 126.783C697.507 126.783 700.822 127.956 703.372 130.302C706.024 132.546 707.962 135.453 709.186 139.023C710.41 142.593 711.022 146.265 711.022 150.039C711.022 156.771 709.492 162.126 706.432 166.104C706.024 166.716 705.208 167.583 703.984 168.705C702.76 169.827 701.842 170.388 701.23 170.388C700.924 170.388 700.771 170.184 700.771 169.776C700.771 169.572 700.771 169.368 700.771 169.164C700.873 168.96 700.975 168.705 701.077 168.399C701.893 166.155 702.505 163.707 702.913 161.055C703.423 158.403 703.678 155.751 703.678 153.099C703.678 149.733 703.168 146.571 702.148 143.613C701.23 140.655 699.598 138.258 697.252 136.422C695.008 134.586 691.897 133.668 687.919 133.668C681.697 133.668 676.291 135.606 671.701 139.482C667.213 143.358 662.725 148.764 658.237 155.7C654.769 161.004 652.168 165.033 650.434 167.787C648.7 170.541 647.272 171.918 646.15 171.918Z" fill="url(#paint0_linear_19_40)"/>
<path d="M71.1936 249.011C70.5829 249.191 69.699 249.119 68.5418 248.797C66.9103 248.216 65.404 246.934 64.0229 244.952C62.8001 243.056 61.8465 240.947 61.1623 238.627C59.9739 234.596 59.6913 231.162 60.3145 228.323C60.8516 225.642 61.8562 223.421 63.3281 221.659C64.9221 219.862 66.6351 218.693 68.4671 218.153C69.4442 217.865 70.3532 217.796 71.194 217.946L71.3772 217.892C72.8491 216.131 74.5081 214.779 76.3543 213.836C68.7365 212.763 61.944 209.987 55.9768 205.507C50.0956 200.869 46.1107 195.008 44.0219 187.924C42.9776 184.382 42.4829 180.678 42.5377 176.812C42.6787 172.788 43.5274 168.688 45.0839 164.512C47.3216 158.144 51.0867 152.454 56.3793 147.442C57.1904 146.14 57.5631 144.703 57.4973 143.129C57.4316 141.556 57.2727 140.341 57.0206 139.486C56.5023 138.179 55.7758 137.066 54.841 136.147C54.0283 135.191 53.1946 134.84 52.3396 135.092C51.6068 135.308 51.1684 135.172 51.0243 134.683C50.8443 134.073 51.1888 133.44 52.0578 132.785C52.6826 132.203 53.4224 131.786 54.2774 131.534C55.6209 131.138 56.8211 131.381 57.878 132.264C59.021 132.989 59.8446 134.207 60.3488 135.916C61.3571 139.336 60.7628 142.498 58.566 145.403C61.6397 142.771 64.9436 140.469 68.4777 138.498C72.1339 136.491 75.8552 134.929 79.6413 133.812L80.1909 133.65C80.4352 133.578 80.6975 133.567 80.9778 133.617C81.3442 133.509 81.5704 133.376 81.6566 133.218C84.0993 132.498 86.1896 131.483 87.9277 130.174C90.2546 128.161 91.6364 126.094 92.0733 123.974C89.9751 124.061 88.1674 123.333 86.6501 121.789C85.1329 120.245 84.1472 118.478 83.6932 116.488C83.3252 114.34 83.2665 112.565 83.5171 111.163C83.8898 109.726 84.2374 108.429 84.56 107.272C84.7463 106.553 84.8356 105.73 84.8278 104.803C84.9061 103.718 84.8012 102.687 84.5131 101.71C84.225 100.733 83.7286 99.9498 83.024 99.3611C82.4055 98.6142 81.5537 98.2016 80.4686 98.1233C80.5187 97.843 80.6479 97.6058 80.8562 97.4116C81.1505 97.0593 81.6641 96.7751 82.3969 96.559C84.3511 95.9828 86.4712 96.4197 88.7573 97.8697C91.0074 99.1976 93.0782 101.043 94.9696 103.406C96.8251 105.647 98.0769 107.866 98.7252 110.065C99.6615 113.24 99.5808 116.118 98.4831 118.698C97.3854 121.279 95.8775 122.918 93.9594 123.617C93.4802 126.944 92.1202 129.535 89.8795 131.391L89.2007 131.79C93.3251 131.371 97.3313 131.451 101.219 132.03C105.229 132.573 108.999 133.652 112.528 135.267C113.793 135.956 115.016 136.724 116.195 137.571C117.496 138.382 118.632 139.308 119.603 140.349L120.476 141.287C121.799 142.622 123.223 143.397 124.746 143.612C126.392 143.79 127.825 143.7 129.047 143.339C131.612 142.583 132.696 141.533 132.3 140.19C132.12 139.579 132.213 139.22 132.579 139.112C133.19 138.932 133.78 139.355 134.348 140.383C135.183 141.862 135.255 143.235 134.566 144.5C134 145.729 133.044 146.542 131.701 146.938C131.212 147.082 130.706 147.165 130.181 147.187C129.621 147.087 129.017 147.065 128.37 147.123C126.761 147.067 125.093 146.364 123.368 145.014C124.626 147.032 125.526 148.958 126.066 150.79C127.111 154.332 127.131 157.777 126.127 161.126C126.393 161.579 126.598 162.049 126.742 162.538C126.973 162.868 127.16 163.278 127.304 163.766C127.772 165.354 127.831 167.129 127.48 169.091C127.215 170.895 126.225 172.714 124.509 174.547C122.879 176.222 120.415 177.546 117.117 178.519C114.308 179.347 111.391 179.809 108.366 179.904C108.085 179.854 107.762 179.883 107.396 179.991C107.029 180.099 106.724 180.189 106.48 180.261C105.014 180.693 103.7 181.413 102.536 182.42C101.337 183.304 100.698 184.289 100.619 185.374C100.505 186.337 100.398 187.099 100.298 187.66C100.284 188.062 100.003 188.012 99.4568 187.509C98.558 186.712 97.9286 185.703 97.5685 184.482C96.9923 182.528 97.264 180.523 98.3836 178.467C99.8837 175.9 102.077 173.66 104.965 171.747C107.816 169.712 110.072 168.582 111.732 168.358L112.831 168.034C111.48 167.503 110.642 166.688 110.318 165.589L110.102 164.856C109.705 163.512 109.766 162.366 110.283 161.417C110.627 160.785 111.018 160.537 111.457 160.673C111.895 160.809 112.082 161.219 112.018 161.901C111.84 163.547 112.706 164.685 114.618 165.316C116.53 165.947 118.305 165.889 119.943 165.14C121.767 163.673 123.239 161.912 124.359 159.856C125.018 157.139 124.951 154.437 124.159 151.75C123.331 148.941 121.734 146.226 119.368 143.605C117.124 140.948 114.457 138.88 111.366 137.402C107.204 135.443 102.787 134.422 98.1165 134.339C93.5678 134.22 88.9728 134.844 84.3317 136.213C76.8815 138.41 70.0396 142.219 63.8059 147.641C57.6945 153.028 53.5308 159.167 51.3151 166.06C49.0994 172.953 48.8057 179.611 50.434 186.034C50.7566 184.877 51.1583 183.762 51.639 182.691C52.1197 181.62 52.8627 180.538 53.868 179.445L53.814 179.262C53.2738 177.43 53.7467 175.432 55.2327 173.268C56.6827 170.982 58.8733 169.407 61.8045 168.543C63.6365 168.003 65.7778 167.836 68.2283 168.043C70.6428 168.127 72.9031 168.589 75.0091 169.428C77.2372 170.232 78.7866 171.434 79.6572 173.036C79.6932 173.158 79.7472 173.342 79.8192 173.586C79.9774 173.672 80.0745 173.776 80.1105 173.898C80.3626 174.753 80.2373 175.454 79.7347 176C78.778 174.557 77.2615 174.141 75.1852 174.753C74.3302 175.005 73.5293 175.44 72.7824 176.059C71.9995 176.555 71.3567 177.077 70.8541 177.623C70.1792 178.486 69.3391 179.464 68.3338 180.557C67.4147 181.491 66.0751 182.351 64.3151 183.136C62.7634 183.726 61.0245 183.907 59.0985 183.678C57.2947 183.413 55.8534 182.577 54.7746 181.169C53.8053 182.385 52.9511 183.765 52.212 185.31C51.5951 186.82 51.6107 188.674 52.2589 190.872L52.3129 191.055C53.7534 195.941 56.5084 200.107 60.578 203.553C64.7336 206.841 69.5101 209.084 74.9075 210.28C80.463 211.562 86.1219 211.62 91.8841 210.452C93.2636 210.178 94.5641 209.861 95.7854 209.501C97.0068 209.14 98.2281 208.78 99.4495 208.42C98.1561 208.536 96.9058 208.573 95.6985 208.531C94.6134 208.452 93.4743 208.191 92.2811 207.746C89.5785 206.684 87.9031 205.054 87.2549 202.856C86.5347 200.413 87.4711 198.411 90.0641 196.85C90.2723 196.656 90.6207 196.487 91.1093 196.343C91.7199 196.163 92.2014 196.22 92.5537 196.514C92.906 196.809 92.8309 197.229 92.3282 197.776C91.7896 198.2 91.7003 199.023 92.0605 200.244C92.5286 201.832 94.0028 203.455 96.483 205.113C99.0854 206.735 102.078 206.981 105.462 205.851C112.674 202.397 118.74 197.754 123.658 191.923C128.699 186.056 132.919 179.435 136.32 172.06C139.844 164.649 142.856 156.857 145.359 148.685C147.947 140.355 150.395 132 152.704 123.62C155.012 115.24 157.532 107.129 160.265 99.2871C162.997 91.4455 166.19 84.2647 169.843 77.7446C173.46 71.1025 177.926 65.5376 183.24 61.05C176.94 62.6424 170.268 63.8793 163.227 64.7607C156.185 65.6422 150.222 66.8031 145.336 68.2436C137.153 70.6564 130.857 73.8404 126.448 77.7956C122.16 81.7148 119.397 85.8486 118.157 90.1968C116.916 94.5451 116.818 98.4902 117.863 102.032C119.051 106.063 121.378 109.226 124.843 111.523C128.308 113.821 132.178 114.339 136.453 113.079C139.384 112.214 141.916 110.671 144.049 108.449C146.268 106.069 147.872 103.406 148.861 100.459C149.815 97.3899 149.781 94.3467 148.758 91.3294C148.622 91.7678 148.407 92.1632 148.112 92.5155C147.732 93.0259 147.114 93.4072 146.259 93.6593C144.061 94.3075 142.228 93.7195 140.761 91.8953C139.948 90.9402 139.355 90.0531 138.98 89.2342C138.728 88.3792 138.512 87.6464 138.332 87.0357C138.044 86.0587 137.433 85.1106 136.498 84.1914C135.527 83.1501 134.467 82.9317 133.318 83.5361C133.138 82.9254 133.421 82.3108 134.168 81.6923C134.498 81.4621 134.969 81.257 135.58 81.077C137.289 80.5728 139.259 80.7224 141.487 81.5257C143.679 82.2068 145.4 83.0931 146.651 84.1845C147.622 85.2258 148.234 86.1739 148.486 87.0288C148.982 87.8118 149.417 88.6127 149.792 89.4316C150.166 90.2506 150.461 91.0264 150.677 91.7592C151.721 95.3011 151.645 98.6426 150.447 101.784C149.249 104.925 147.339 107.678 144.718 110.044C142.183 112.252 139.206 113.86 135.786 114.868C133.099 115.66 130.451 115.91 127.842 115.617C129.201 117.075 130.043 118.354 130.367 119.453C130.835 121.041 130.682 122.546 129.907 123.969C129.268 124.954 128.399 125.609 127.3 125.933C125.956 126.329 124.688 126.305 123.495 125.86C122.266 125.293 122.262 124.83 123.483 124.47C124.46 124.182 125.171 123.441 125.616 122.248C126.06 121.055 126.085 119.786 125.689 118.443C125.58 118.076 125.357 117.545 125.019 116.848C124.767 115.993 124.289 115.271 123.584 114.682C122.952 114.338 122.258 114.012 121.503 113.703C120.871 113.359 120.177 113.032 119.422 112.724L119.185 112.594C117.129 111.475 115.49 109.967 114.267 108.071C113.008 106.052 112.054 103.944 111.406 101.745C110.29 97.9593 110.291 93.9101 111.409 89.5978C112.527 85.2856 115.107 81.2058 119.15 77.3587C123.279 73.3534 129.137 70.0331 136.724 67.3979C133.899 66.3723 132.144 64.6992 131.46 62.3786C130.992 60.7909 131.174 59.6087 132.008 58.832C132.805 57.9333 133.631 57.3578 134.485 57.1057C133.875 57.2858 133.822 58.2308 134.326 59.9407C134.686 61.162 135.326 62.4335 136.247 63.755C137.168 65.0766 138.347 65.9237 139.784 66.2964C142.593 65.4682 146.207 64.6681 150.626 63.8962C155.131 62.9662 159.916 62.0862 164.981 61.2564C170.169 60.3906 175.033 59.5537 179.574 58.7458C184.079 57.8158 187.675 56.9547 190.362 56.1624C191.842 55.3278 193.548 54.3602 195.48 53.2594C197.412 52.1587 199.233 51.3562 200.943 50.8521C202.409 50.4199 203.598 50.4011 204.511 50.7957C205.424 51.1903 205.988 51.754 206.204 52.4869C206.78 54.441 205.7 55.9544 202.963 57.0269C201.375 57.4951 199.525 57.9742 197.413 58.4643C195.264 58.8322 193.519 59.2142 192.175 59.6104C187.658 63.1992 183.773 68.2606 180.523 74.7948C177.394 81.2929 174.579 88.6279 172.076 96.7999C169.574 104.972 166.997 113.564 164.344 122.577C164.796 122.311 165.45 122.052 166.305 121.8C168.748 121.08 171.382 121.232 174.206 122.258C177.031 123.284 179.138 125.251 180.527 128.16C184.261 125.068 188.214 120.915 192.386 115.703C196.557 110.49 200.768 104.735 205.017 98.4375C209.231 92.0177 213.366 85.5548 217.421 79.0489C221.477 72.5429 225.256 66.4504 228.759 60.7712C232.384 55.056 235.632 50.3147 238.504 46.5474C245.267 37.5174 251.086 30.6905 255.963 26.0667C260.961 21.4069 265.288 18.0733 268.944 16.066C270.546 15.1954 272.019 14.562 273.362 14.1659C276.416 13.2656 278.769 13.3682 280.422 14.4737C282.162 15.421 283.23 16.5664 283.626 17.9099C284.13 19.6198 283.686 20.813 282.292 21.4894C281.091 20.1177 279.269 19.792 276.826 20.5122C273.895 21.3765 270.311 23.6281 266.074 27.267C261.837 30.9059 257.535 35.2276 253.17 40.2319C248.926 45.2002 245.024 50.2006 241.463 55.2331C239.216 58.4179 236.226 62.6847 232.493 68.0335C228.724 73.2602 224.575 78.9973 220.045 85.2449C215.601 91.3343 211.017 97.3987 206.293 103.438C201.691 109.441 197.25 114.866 192.97 119.712C188.777 124.4 185.169 127.92 182.145 130.272C184.835 133.992 187.874 138.672 191.262 144.31C194.737 149.791 198.334 155.235 202.052 160.644C205.929 166.138 209.87 170.95 213.876 175.079C218.003 179.172 222.011 181.509 225.899 182.088C228.385 182.417 230.606 182.293 232.56 181.717C236.59 180.529 239.675 178.159 241.814 174.608C244.111 171.142 244.45 167.79 242.831 164.55L245.234 163.244C246.609 166.556 246.611 169.941 245.241 173.398C244.029 176.941 241.886 180.029 238.812 182.661C235.774 185.416 232.179 187.405 228.027 188.629C225.828 189.278 223.54 189.62 221.161 189.658C218.783 189.695 216.375 189.41 213.939 188.801C208.872 187.374 204.397 184.578 200.514 180.413C196.753 176.212 193.397 171.36 190.447 165.858C187.583 160.197 185.061 154.569 182.88 148.973C180.663 143.254 178.601 138.287 176.693 134.07C175.702 134.76 174.596 135.286 173.375 135.646C171.054 136.33 168.712 136.49 166.347 136.125C163.947 135.638 162.275 134.471 161.333 132.625C158.658 141.113 155.624 149.508 152.231 157.81C148.924 165.954 144.887 173.649 140.121 180.896C135.318 188.02 129.52 194.244 122.726 199.566C116.09 204.974 108.13 209.047 98.8481 211.784C97.7489 212.108 96.6317 212.371 95.4965 212.573C94.3973 212.897 93.28 213.16 92.1448 213.362C89.0194 214.018 85.9261 214.333 82.8649 214.306C82.3404 214.328 81.7548 214.368 81.1081 214.426C80.6195 214.57 80.0699 214.732 79.4593 214.912C77.1387 215.596 75.1203 216.855 73.4042 218.688C75.3019 219.722 76.5929 221.399 77.2772 223.72C77.8534 225.674 77.887 227.589 77.3781 229.465C76.819 231.621 76.0549 233.306 75.0856 234.521C74.1524 235.859 73.2872 236.976 72.4902 237.875C71.5351 238.688 70.767 239.91 70.1861 241.542C69.6051 243.173 69.5127 244.661 69.9088 246.004C70.233 247.103 70.9485 247.954 72.0556 248.557C71.9334 248.593 71.8113 248.629 71.6891 248.665C71.603 248.823 71.4378 248.939 71.1936 249.011ZM171.369 134.246C172.834 133.814 174.235 132.936 175.571 131.613C175.161 130.672 174.38 129.375 173.229 127.723C172.042 125.949 170.393 125.307 168.28 125.797C166.693 126.266 165.579 126.992 164.94 127.977C164.424 128.926 164.309 129.889 164.597 130.866C164.958 132.087 165.788 133.103 167.089 133.915C168.355 134.604 169.781 134.714 171.369 134.246ZM101.831 207.718C102.564 207.502 103.401 207.189 104.342 206.778C105.441 206.454 105.998 206.091 106.012 205.689L105.462 205.851C104.485 206.139 103.465 206.506 102.402 206.952C101.497 207.485 100.513 207.974 99.4495 208.42L101.831 207.718Z" fill="url(#paint1_linear_19_40)"/>
<path d="M544.83 196.239C544.545 195.318 544.153 194.494 543.653 193.767C543.165 193.028 542.574 192.398 541.881 191.875C541.199 191.352 540.415 190.96 539.528 190.699C538.642 190.426 537.676 190.29 536.631 190.29C534.756 190.29 533.085 190.761 531.619 191.705C530.153 192.648 529 194.034 528.159 195.864C527.33 197.682 526.915 199.898 526.915 202.511C526.915 205.148 527.33 207.381 528.159 209.21C528.989 211.04 530.142 212.432 531.619 213.386C533.097 214.33 534.813 214.801 536.767 214.801C538.54 214.801 540.074 214.46 541.369 213.778C542.676 213.097 543.682 212.131 544.386 210.881C545.091 209.619 545.443 208.142 545.443 206.449L546.875 206.67H537.398V201.727H551.562V205.92C551.562 208.909 550.926 211.494 549.653 213.676C548.381 215.858 546.631 217.54 544.403 218.722C542.176 219.892 539.619 220.477 536.733 220.477C533.517 220.477 530.693 219.756 528.261 218.312C525.841 216.858 523.949 214.795 522.585 212.125C521.233 209.443 520.557 206.261 520.557 202.58C520.557 199.761 520.955 197.244 521.75 195.028C522.557 192.812 523.682 190.932 525.125 189.386C526.568 187.83 528.261 186.648 530.205 185.841C532.148 185.023 534.261 184.614 536.545 184.614C538.477 184.614 540.278 184.898 541.949 185.466C543.619 186.023 545.102 186.818 546.398 187.852C547.705 188.886 548.778 190.114 549.619 191.534C550.46 192.955 551.011 194.523 551.273 196.239H544.83ZM558.565 220V193.818H564.736V220H558.565ZM561.668 190.102C560.69 190.102 559.85 189.778 559.145 189.131C558.44 188.472 558.088 187.682 558.088 186.761C558.088 185.83 558.44 185.04 559.145 184.392C559.85 183.733 560.69 183.403 561.668 183.403C562.656 183.403 563.497 183.733 564.19 184.392C564.895 185.04 565.247 185.83 565.247 186.761C565.247 187.682 564.895 188.472 564.19 189.131C563.497 189.778 562.656 190.102 561.668 190.102ZM570.601 220V193.818H576.584V198.182H576.857C577.334 196.67 578.152 195.506 579.311 194.688C580.482 193.858 581.817 193.443 583.317 193.443C583.658 193.443 584.039 193.46 584.459 193.494C584.891 193.517 585.249 193.557 585.533 193.614V199.29C585.272 199.199 584.857 199.119 584.289 199.051C583.732 198.972 583.192 198.932 582.669 198.932C581.544 198.932 580.533 199.176 579.635 199.665C578.749 200.142 578.05 200.807 577.539 201.659C577.027 202.511 576.772 203.494 576.772 204.608V220H570.601ZM595.323 185.091V220H589.152V185.091H595.323ZM621.881 200.739L616.256 201.352C616.097 200.784 615.819 200.25 615.421 199.75C615.035 199.25 614.512 198.847 613.853 198.54C613.194 198.233 612.387 198.08 611.432 198.08C610.148 198.08 609.069 198.358 608.194 198.915C607.33 199.472 606.904 200.193 606.915 201.08C606.904 201.841 607.182 202.46 607.75 202.938C608.33 203.415 609.285 203.807 610.614 204.114L615.08 205.068C617.557 205.602 619.398 206.449 620.603 207.608C621.819 208.767 622.432 210.284 622.444 212.159C622.432 213.807 621.949 215.261 620.995 216.523C620.052 217.773 618.739 218.75 617.057 219.455C615.375 220.159 613.444 220.511 611.262 220.511C608.057 220.511 605.478 219.841 603.523 218.5C601.569 217.148 600.404 215.267 600.029 212.858L606.046 212.278C606.319 213.46 606.898 214.352 607.785 214.955C608.671 215.557 609.824 215.858 611.245 215.858C612.711 215.858 613.887 215.557 614.773 214.955C615.671 214.352 616.12 213.608 616.12 212.722C616.12 211.972 615.83 211.352 615.25 210.864C614.682 210.375 613.796 210 612.591 209.739L608.125 208.801C605.614 208.278 603.756 207.398 602.552 206.159C601.347 204.909 600.75 203.33 600.762 201.42C600.75 199.807 601.188 198.409 602.074 197.227C602.972 196.034 604.216 195.114 605.807 194.466C607.41 193.807 609.256 193.477 611.347 193.477C614.415 193.477 616.83 194.131 618.591 195.438C620.364 196.744 621.461 198.511 621.881 200.739ZM638.751 220V185.091H651.842C654.523 185.091 656.773 185.591 658.592 186.591C660.421 187.591 661.802 188.966 662.734 190.716C663.677 192.455 664.148 194.432 664.148 196.648C664.148 198.886 663.677 200.875 662.734 202.614C661.79 204.352 660.398 205.722 658.558 206.722C656.717 207.71 654.45 208.205 651.756 208.205H643.08V203.006H650.904C652.472 203.006 653.756 202.733 654.756 202.188C655.756 201.642 656.495 200.892 656.972 199.938C657.461 198.983 657.705 197.886 657.705 196.648C657.705 195.409 657.461 194.318 656.972 193.375C656.495 192.432 655.751 191.699 654.739 191.176C653.739 190.642 652.45 190.375 650.87 190.375H645.075V220H638.751ZM671.049 220.375C670.015 220.375 669.129 220.011 668.39 219.284C667.651 218.557 667.288 217.67 667.299 216.625C667.288 215.602 667.651 214.727 668.39 214C669.129 213.273 670.015 212.909 671.049 212.909C672.049 212.909 672.918 213.273 673.657 214C674.407 214.727 674.788 215.602 674.799 216.625C674.788 217.318 674.606 217.949 674.254 218.517C673.913 219.085 673.458 219.54 672.89 219.881C672.333 220.21 671.72 220.375 671.049 220.375ZM704.349 196.239C704.065 195.318 703.673 194.494 703.173 193.767C702.684 193.028 702.093 192.398 701.4 191.875C700.718 191.352 699.934 190.96 699.048 190.699C698.161 190.426 697.196 190.29 696.15 190.29C694.275 190.29 692.605 190.761 691.139 191.705C689.673 192.648 688.519 194.034 687.678 195.864C686.849 197.682 686.434 199.898 686.434 202.511C686.434 205.148 686.849 207.381 687.678 209.21C688.508 211.04 689.661 212.432 691.139 213.386C692.616 214.33 694.332 214.801 696.286 214.801C698.059 214.801 699.593 214.46 700.889 213.778C702.196 213.097 703.201 212.131 703.906 210.881C704.61 209.619 704.963 208.142 704.963 206.449L706.394 206.67H696.917V201.727H711.082V205.92C711.082 208.909 710.446 211.494 709.173 213.676C707.9 215.858 706.15 217.54 703.923 218.722C701.696 219.892 699.139 220.477 696.252 220.477C693.036 220.477 690.213 219.756 687.781 218.312C685.36 216.858 683.468 214.795 682.105 212.125C680.752 209.443 680.076 206.261 680.076 202.58C680.076 199.761 680.474 197.244 681.269 195.028C682.076 192.812 683.201 190.932 684.644 189.386C686.088 187.83 687.781 186.648 689.724 185.841C691.667 185.023 693.781 184.614 696.065 184.614C697.997 184.614 699.798 184.898 701.468 185.466C703.139 186.023 704.622 186.818 705.917 187.852C707.224 188.886 708.298 190.114 709.139 191.534C709.98 192.955 710.531 194.523 710.792 196.239H704.349Z" fill="url(#paint2_linear_19_40)"/>
<defs>
<linearGradient id="paint0_linear_19_40" x1="481" y1="33" x2="481" y2="220" gradientUnits="userSpaceOnUse">
<stop offset="0.375" stop-color="#63C2B1"/>
<stop offset="0.708333" stop-color="#8E7FE8" stop-opacity="0.91"/>
<stop offset="0.947917" stop-color="#52385F" stop-opacity="0"/>
</linearGradient>
<linearGradient id="paint1_linear_19_40" x1="81.5298" y1="24.0396" x2="157.645" y2="282.182" gradientUnits="userSpaceOnUse">
<stop stop-color="#EB3E3E"/>
<stop offset="0.505208" stop-color="#A35A74" stop-opacity="0.789577"/>
<stop offset="0.984375" stop-color="#1D4DF7" stop-opacity="0.97"/>
</linearGradient>
<linearGradient id="paint2_linear_19_40" x1="619" y1="174" x2="619" y2="221" gradientUnits="userSpaceOnUse">
<stop offset="0.276042" stop-color="#AFFFFF" stop-opacity="0.990012"/>
<stop offset="0.567708" stop-color="#6CE0E0"/>
<stop offset="0.947917" stop-color="#38E0EB" stop-opacity="0.990012"/>
</linearGradient>
</defs>
</svg>
